<svg xmlns="http://www.w3.org/2000/svg" viewBox="0 0 1024 1024" width="1024" height="1024">
    <defs>
        <linearGradient id="bgGrad" x1="0" y1="0" x2="1" y2="1">
            <stop offset="0%" stop-color="#137ef2"/>
            <stop offset="100%" stop-color="#5cb5f9"/>
        </linearGradient>

        <!-- Subtle soft shadow for floating cards -->
        <filter id="softShadow" x="-20%" y="-20%" width="140%" height="140%">
            <feDropShadow dx="0" dy="14" stdDeviation="18" flood-color="#000000" flood-opacity="0.22"/>
        </filter>

        <filter id="pageShadow" x="-20%" y="-20%" width="140%" height="140%">
            <feDropShadow dx="0" dy="10" stdDeviation="12" flood-color="#000000" flood-opacity="0.18"/>
        </filter>

        <filter id="coinShadow" x="-20%" y="-20%" width="140%" height="140%">
            <feDropShadow dx="0" dy="10" stdDeviation="10" flood-color="#000000" flood-opacity="0.25"/>
        </filter>

        <linearGradient id="coinGrad" x1="0" y1="0" x2="0" y2="1">
            <stop offset="0%" stop-color="#ffc02e"/>
            <stop offset="100%" stop-color="#ffaa19"/>
        </linearGradient>
        <linearGradient id="coinRingGrad" x1="0" y1="0" x2="0" y2="1">
            <stop offset="0%" stop-color="#FFC83A"/>
            <stop offset="100%" stop-color="#E59200"/>
        </linearGradient>
    </defs>

    <!-- Rounded square background -->
    <rect x="72" y="72" width="880" height="880" rx="220" fill="url(#bgGrad)"/>

    <!-- Back pages (slightly tilted) -->
    <g filter="url(#softShadow)">
        <rect x="340" y="210" width="460" height="560" rx="42" fill="#DDEBFF" opacity="0.9" transform="rotate(18 750 480)"/>
        <rect x="300" y="230" width="470" height="560" rx="46" fill="#EAF3FF" opacity="0.95" transform="rotate(12 715 490)"/>
    </g>

    <!-- Main notebook page -->
    <g filter="url(#pageShadow)">
        <rect id="page" x="260" y="240" width="520" height="560" rx="54" fill="#FFFFFF"/>
        <!-- Inner card area -->
        <rect x="356" y="322" width="330" height="420" rx="34" fill="#EDEFF2"/>
    </g>

    <!-- Binder rings -->
    <g>
        <circle cx="260" cy="360" r="34" fill="#2B2F38"/>
        <circle cx="260" cy="520" r="34" fill="#2B2F38"/>
        <circle cx="260" cy="680" r="34" fill="#2B2F38"/>
        <!-- little highlights -->
        <circle cx="248" cy="350" r="10" fill="#FFFFFF" opacity="0.35"/>
        <circle cx="248" cy="510" r="10" fill="#FFFFFF" opacity="0.35"/>
        <circle cx="248" cy="670" r="10" fill="#FFFFFF" opacity="0.35"/>
    </g>

    <!-- Gold checkmark coin -->
    <g filter="url(#coinShadow)">
        <!-- ring -->
        <circle cx="690" cy="680" r="148" fill="url(#coinRingGrad)"/>
        <circle cx="690" cy="680" r="112" fill="url(#coinGrad)"/>
        <!-- check -->
        <g transform="translate(10,60)">
            <path d="M635 683 l-36 -36 a18 18 0 0 1 25 -25 l25 25 72 -72 a18 18 0 1 1 25 25 l-84 84 a18 18 0 0 1 -27 0z" fill="#FFFFFF"/>
        </g>
    </g>
</svg>
